<svg xmlns="http://www.w3.org/2000/svg" viewBox="0 0 100.71 112.82"><defs><style>.cls-1{fill:#86c3d0;}.cls-2{fill:#fff;}.cls-3{font-size:12px;fill:#1d1d1b;font-family:MyriadPro-Regular, Myriad Pro;}</style></defs><g id="API"><path class="cls-1" d="M50.35,13.37a43,43,0,1,0,43.05,43A43,43,0,0,0,50.35,13.37Z"/><path class="cls-2" d="M41.79,61.68a13.82,13.82,0,1,1,12.57-8,.86.86,0,1,1-1.57-.72,12.11,12.11,0,1,0-2.43,3.49.86.86,0,1,1,1.21,1.22A13.77,13.77,0,0,1,41.79,61.68Z"/><path class="cls-2" d="M68.31,78.8a4.44,4.44,0,0,1-3.14-1.29L55.6,67.93a.86.86,0,0,1,1.22-1.21l9.57,9.57a2.72,2.72,0,0,0,3.84-3.84l-9.57-9.57a2.77,2.77,0,0,0-3.84,0,.9.9,0,0,1-1.22,0l-5.24-5.25a.86.86,0,0,1,1.21-1.22l4.7,4.7a4.44,4.44,0,0,1,5.61.55l9.57,9.57a4.43,4.43,0,0,1-3.14,7.57Z"/><path class="cls-2" d="M41.79,55.17a.82.82,0,0,1-.6-.25.84.84,0,0,1-.26-.62.83.83,0,0,1,.26-.6.88.88,0,0,1,1.21,0,.86.86,0,0,1,.25.6.85.85,0,0,1-.86.87Z"/><path class="cls-2" d="M41.79,50.72a.86.86,0,0,1-.86-.86V41.39a.86.86,0,0,1,1.72,0v8.47A.85.85,0,0,1,41.79,50.72Z"/></g><g id="HOSTING"><text class="cls-3" transform="translate(17.93 -4.98)">JWS</text></g></svg>